<svg id="Capa_1" enable-background="new 0 0 512 512" height="512" viewBox="0 0 512 512" width="512" xmlns="http://www.w3.org/2000/svg"><path d="m500.537 504.5h-115.72v-39.01c-19.29 0-34.92-15.63-34.92-34.92v-54.46l-29.54-59.33v-29.67c0-23.8 19.29-43.09 43.09-43.09h34.61c23.8 0 43.09 19.29 43.09 43.09v73.63s59.39 36.02 59.39 143.76z" fill="#aa593d"/><path d="m421.067 504.5h-36.25v-39.01c-19.29 0-34.92-15.63-34.92-34.92v-54.46l-29.54-59.33v-29.67c0-23.8 19.29-43.09 43.09-43.09h14.38c-21.29 0-30.93 51.55-26.11 102.42l29.43 16.3s-22.61 78.48 15.96 99.76c21.28 11.74 24.95 28.94 23.96 42z" fill="#934d36"/><ellipse cx="35.321" cy="231.255" fill="#454045" rx="33.34" ry="16.119" transform="matrix(.707 -.707 .707 .707 -153.177 92.709)"/><ellipse cx="288.28" cy="231.255" fill="#665e66" rx="16.119" ry="33.34" transform="matrix(.707 -.707 .707 .707 -79.086 271.578)"/><path d="m306.216 129.26c0 67.24-64.66 121.75-144.42 121.75-5.39 0-10.7-.25-15.93-.74-72.26-6.68-128.48-58.31-128.48-121.01 0-67.25 64.66-121.76 144.41-121.76 79.76 0 144.42 54.51 144.42 121.76z" fill="#665e66"/><path d="m103.326 116.31 42.54 133.96c-72.26-6.68-128.48-58.31-128.48-121.01 0-67.25 64.66-121.76 144.41-121.76-49.22 10.36-58.47 75.44-58.47 108.81z" fill="#454045"/><path d="m200.949 442.08-10 39.02-29.15 11.75-13.02-5.25-16.13-6.5-10-39.02 19.67-10.55 21.26-11.4z" fill="#f1d0a5"/><path d="m148.779 487.6-16.13-6.5-10-39.02 19.67-10.55z" fill="#f1b986"/><path d="m161.799 424.014h13.526v60.301h-13.526z" fill="#f1b986"/><path d="m107.188 504.5h54.611v-23.402h-31.21c-12.924 0-23.401 10.478-23.401 23.402z" fill="#70c6da"/><path d="m145.509 481.095c-12.923 0-23.405 10.482-23.405 23.405h-14.916c0-12.923 10.472-23.405 23.395-23.405z" fill="#63afcb"/><path d="m216.41 504.5h-54.611v-23.402h31.21c12.924 0 23.401 10.478 23.401 23.402z" fill="#70c6da"/><path d="m266.747 412.49c-3.85 3.85-11.22 4.27-17.88 3.66-7.31-.68-13.76-2.6-13.76-2.6l-19.85-11.04-5.33-41.89-4.65-36.59 21.28 3.68 14.09 2.43 21.73 3.76 4.37 49.77s8.08 20.74 0 28.82z" fill="#f1d0a5"/><path d="m248.867 416.15c-7.31-.68-13.76-2.6-13.76-2.6l-19.85-11.04-5.33-41.89 4.66-32.6 11.97-.31 13.3-.35s.3.98.79 2.78c3.08 11.15 13.8 53.58 8.22 86.01z" fill="#f1b986"/><path d="m61.229 333.9-4.369 49.773s-8.082 20.733 0 28.815 31.639 1.062 31.639 1.062l28.986-85.529-42.565-7.981z" fill="#f1b986"/><path d="m232.936 442.08h-142.27c-5.04-31.45-3.37-57.13-.49-74.78l24.63-6.95 48.57-13.71 70.05 20.66c2.87 17.65 4.55 43.33-.49 74.78z" fill="#8078bc"/><path d="m109.776 442.08h-19.11c-5.04-31.45-3.37-57.13-.49-74.78l24.63-6.95c-4.02 25.6-6.65 54.37-5.03 81.73z" fill="#5e54ac"/><path d="m226.727 340.58-.06.01s3.91 9.58 6.7 26.71h-143.25c2.7-16.59 6.46-26.1 6.69-26.68.01-.02.01-.03.01-.03l-14.87-2.79-20.78-3.9c9.87-51.44 33.39-70.47 38.35-73.97h124.45c4.96 3.5 28.48 22.53 38.35 73.97l-19.73 3.7z" fill="#f6e266"/><g fill="#eab14d"><path d="m242.587 337.6-15.86 2.98-6.82-20.54s19.66 3.97 22.68 17.56z"/><path d="m116.817 318.04-3.05 49.26h-23.65c2.7-16.59 6.46-26.1 6.69-26.68l.07-.03s3.98-15.89 19.94-22.55z"/><path d="m123.557 259.93c-35.51 32.83-41.53 77.87-41.53 77.87h-.08l-20.78-3.9c9.87-51.44 33.39-70.47 38.35-73.97z"/></g><ellipse cx="161.804" cy="263.539" fill="#f1b986" rx="50.876" ry="36.943"/><path d="m264.706 207.68c-1.52 29.69-25.28 53.33-54.98 54.73-25.16 1.19-50.32 1.44-75.49.75h-.01c-6.78-.18-13.57-.43-20.35-.75-29.69-1.4-53.45-25.04-54.98-54.73-1.08-21.16-.35-102.79-.35-102.79s17.46 9.53 44.78 11.42c27.88 1.92 66.04-4.11 106.36-36.36 0 0 26.04 38.05 55.52 48.11.14 25.81.21 65.73-.5 79.62z" fill="#f1d0a5"/><path d="m134.226 263.16c-6.78-.18-13.57-.43-20.35-.75-29.69-1.4-53.45-25.04-54.98-54.73-1.08-21.16-.35-102.79-.35-102.79s17.46 9.53 44.78 11.42c.82 96.56 11.37 146.11 30.9 146.85z" fill="#f1b986"/><ellipse cx="225.981" cy="192.677" fill="#eaac9d" rx="15.297" ry="9.644"/><ellipse cx="97.62" cy="192.677" fill="#eaac9d" rx="15.297" ry="9.644"/><path d="m383.076 316.781h-62.716c-16.382 0-29.663 13.28-29.663 29.662 0 16.382 13.28 29.662 29.663 29.662h62.716c16.382 0 29.662-13.28 29.662-29.662 0-16.382-13.28-29.662-29.662-29.662z" fill="#eadfda"/><path d="m320.667 367.423c5.36 5.37 12.78 8.69 20.97 8.69h-21.28c-8.19 0-15.61-3.32-20.97-8.69-5.37-5.37-8.69-12.78-8.69-20.98 0-16.38 13.28-29.66 29.66-29.66h21.28c-16.38 0-29.66 13.28-29.66 29.66 0 8.2 3.32 15.61 8.69 20.98z" fill="#c6beb9"/><path d="m351.718 336.846c-9.637 0-17.449-7.812-17.449-17.449v-2.617h34.897v2.617c0 9.637-7.812 17.449-17.448 17.449z" fill="#665e66"/><path d="m446.291 330.813c-12.328 0-22.323-9.994-22.323-22.323v-55.808h5.547c21.593 0 39.098 17.505 39.098 39.098v16.709c0 12.33-9.994 22.324-22.322 22.324z" fill="#eadfda"/><path d="m123.21 158.843c0-7.725-4.227-14.01-9.423-14.01s-9.424 6.285-9.424 14.01 4.228 14.01 9.424 14.01 9.423-6.285 9.423-14.01z"/><path d="m209.824 172.853c5.196 0 9.423-6.285 9.423-14.01s-4.227-14.01-9.423-14.01-9.423 6.285-9.423 14.01 4.226 14.01 9.423 14.01z"/><path d="m161.803 219.859c11.852 0 22.794-6.92 27.876-17.629 1.776-3.742.182-8.216-3.561-9.992-3.741-1.776-8.215-.182-9.991 3.561-2.612 5.504-8.235 9.06-14.325 9.06s-11.713-3.556-14.325-9.06c-1.776-3.742-6.249-5.337-9.991-3.561s-5.336 6.25-3.561 9.992c5.083 10.709 16.026 17.629 27.878 17.629z"/><ellipse cx="385.427" cy="291.092" rx="9.423" ry="14.01"/><ellipse cx="354.243" cy="291.092" rx="9.423" ry="14.01"/><path d="m494.377 422.503v-79.719c0-4.142-3.358-7.5-7.5-7.5s-7.5 3.358-7.5 7.5v48.862c-.764-1.231-1.525-2.425-2.277-3.563-11.343-17.168-22.794-27.005-28.453-31.249v-18.625c15.345-1.206 27.465-14.069 27.465-29.718v-14.53c0-4.142-3.358-7.5-7.5-7.5s-7.5 3.358-7.5 7.5v14.53c0 8.172-6.648 14.82-14.82 14.82s-14.82-6.648-14.82-14.82v-48.249c8.249.515 16.028 4.262 21.587 10.458 2.767 3.083 7.508 3.339 10.591.574 3.083-2.767 3.34-7.508.574-10.591-8.839-9.851-21.492-15.501-34.713-15.501h-3.156c-8.364-5.67-18.091-8.66-28.298-8.66h-34.61c-27.896 0-50.59 22.694-50.59 50.59v22.932c-16.908 3.48-29.66 18.479-29.66 36.401 0 20.492 16.671 37.163 37.163 37.163h22.037v21.45c-12.742 13.739-24.979 20.104-36.407 18.9-14.579-1.541-24.869-15.057-28.238-20.113.206-3.021.022-6.352-.573-10.001-.853-5.227-2.338-9.8-3.048-11.812l-4.282-48.786h-.002c-.022-.253-.056-.506-.105-.758-7.287-37.977-21.672-59.299-31.886-70.209 10.724-5.721 19.627-14.332 25.69-24.836 2.185 3.811 4.873 7.35 8.036 10.509 9.47 9.479 22.094 14.664 35.316 14.664 1.928 0 3.869-.11 5.815-.333 3.465-.397 6.198-3.131 6.596-6.596 1.753-15.279-3.469-30.27-14.325-41.125-5.213-5.219-11.466-9.165-18.283-11.643 17.558-21.451 27.015-46.909 27.015-73.657 0-71.276-68.151-129.262-151.92-129.262-83.764 0-151.91 57.986-151.91 129.26 0 26.748 9.457 52.204 27.016 73.658-6.815 2.477-13.067 6.421-18.275 11.636-10.862 10.851-16.085 25.843-14.33 41.132.398 3.464 3.131 6.198 6.596 6.596 1.947.224 3.888.334 5.818.334 13.221 0 25.844-5.185 35.311-14.662 3.162-3.162 5.85-6.703 8.035-10.512 6.064 10.504 14.968 19.116 25.69 24.837-10.214 10.91-24.599 32.232-31.885 70.209-.052.269-.085.54-.107.811l-4.278 48.733c-.71 2.012-2.195 6.585-3.048 11.812-1.751 10.736-.025 18.793 5.129 23.948 4.672 4.672 11.826 6.09 18.793 6.09 3.665 0 7.271-.395 10.443-.913.536 6.47 1.335 13.24 2.466 20.3.583 3.637 3.721 6.313 7.405 6.313h26.162l6.385 24.915c-13.488 3.317-23.526 15.508-23.526 30.005 0 4.142 3.358 7.5 7.5 7.5h54.611 54.611c4.142 0 7.5-3.358 7.5-7.5 0-14.497-10.037-26.688-23.526-30.005l6.385-24.915h26.166c3.684 0 6.823-2.676 7.405-6.313 1.131-7.06 1.93-13.83 2.466-20.3 3.173.518 6.781.914 10.448.914 6.251 0 12.648-1.15 17.272-4.76 6.775 7.953 18.245 18.054 33.77 19.739 1.506.164 3.012.245 4.52.245 11.21 0 22.448-4.543 33.579-13.51v4.98c0 20.831 15.092 38.202 34.917 41.752v24.671h-7.466c-4.142 0-7.5 3.358-7.5 7.5s3.358 7.5 7.5 7.5h130.69c4.142 0 7.5-3.358 7.5-7.5.003-34.086-5.905-61.153-13.657-81.997zm-189.817-174.969c-8.394-.563-16.307-4.118-22.374-10.19-5.293-5.286-8.716-12.078-9.846-19.409.95-.855 1.884-1.719 2.802-2.593 7.254 1.152 13.989 4.573 19.231 9.821 6.069 6.068 9.623 13.982 10.187 22.371zm-285.517 0c.563-8.394 4.117-16.308 10.19-22.375 5.238-5.245 11.971-8.665 19.224-9.817.92.874 1.855 1.739 2.805 2.595-1.131 7.323-4.556 14.115-9.852 19.412-6.062 6.069-13.973 9.623-22.367 10.185zm47.34-40.234c-.331-6.52-.523-19.903-.57-39.778-.01-4.136-3.366-7.482-7.5-7.482-.006 0-.012 0-.019 0-4.142.01-7.492 3.376-7.482 7.518.029 12.081.109 21.635.241 28.859-16.987-19.411-26.168-42.714-26.168-67.157.001-63.003 61.418-114.26 136.911-114.26 75.498 0 136.92 51.257 136.92 114.26 0 24.448-9.183 47.754-26.173 67.164.349-18.906.262-49.473.16-68.405-.018-3.194-2.055-6.026-5.078-7.058-26.734-9.123-51.508-44.891-51.753-45.248-1.178-1.721-3.021-2.875-5.083-3.182-2.066-.307-4.162.258-5.791 1.561-31.368 25.091-64.885 36.81-99.624 34.824-26.022-1.486-43.089-10.531-43.241-10.612-2.312-1.261-5.118-1.217-7.391.118-2.271 1.335-3.676 3.764-3.7 6.399-.001.145-.131 14.649-.201 32.749-.016 4.142 3.329 7.513 7.471 7.529h.029c4.129 0 7.483-3.339 7.5-7.471.032-8.233.076-15.72.114-21.443 8.5 3.053 21.533 6.641 37.757 7.659 25.412 1.594 63.679-3.08 104.485-33.289 8.501 10.948 27.515 32.969 49.53 42.629.112 24 .157 60.939-.516 74.111-1.327 25.925-21.896 46.398-47.844 47.622-31.56 1.491-63.571 1.491-95.143 0-25.938-1.222-46.505-21.696-47.841-47.617zm137.634 62.852c-4.559 12.899-22.036 22.828-42.213 22.828-20.176 0-37.653-9.929-42.212-22.827 14.023.578 28.112.885 42.209.885 14.098-.001 28.195-.308 42.216-.886zm-102.785-1.988c.855.205 1.721.385 2.589.556 1.534 10.329 7.64 19.777 17.6 27.009 10.881 7.9 25.223 12.251 40.384 12.251s29.503-4.351 40.384-12.251c9.961-7.232 16.067-16.682 17.601-27.012.865-.171 1.728-.35 2.58-.554 6.873 5.905 22.515 22.82 31.083 59.78l-28.109 5.275c-2.209.414-4.112 1.805-5.192 3.776s-1.215 4.33-.375 6.415c1.481 3.672 3.173 9.247 4.679 16.386h-125.311c1.505-7.134 3.195-12.704 4.674-16.371.852-2.086.721-4.444-.357-6.423s-2.988-3.368-5.203-3.783l-28.109-5.275c8.567-36.958 24.208-53.873 31.082-59.779zm-39.068 139.02c-2.618-2.618-1.268-13.14 1.685-20.788.258-.663.421-1.359.483-2.068l3.645-41.531 19.1 3.584c-3.178 11.116-7.76 32.474-7.085 61.491-8.129 1.505-15.801 1.338-17.828-.688zm92.135 66.415h-15.831l-6.156-24.019h21.986v24.019zm-23.71 15h2.059 21.651v8.401h-37.729c2.684-4.996 7.962-8.401 14.019-8.401zm76.439 8.401h-37.729v-8.401h21.65 2.059c6.058 0 11.336 3.405 14.02 8.401zm-21.899-23.401h-15.83v-24.019h21.986zm41.33-39.019h-25.509-39.15-39.151-25.506c-3.102-23.173-2.492-43.699-.484-59.784h130.283c2.008 16.087 2.618 36.612-.483 59.784zm34.984-27.396c-2.028 2.027-9.702 2.193-17.833.688.674-29.017-3.907-50.374-7.085-61.49l19.105-3.585 3.645 41.532c.062.709.225 1.405.483 2.068 3.905 10.018 3.613 18.859 1.685 20.787zm36.754-60.741c0-12.22 9.942-22.162 22.163-22.162h6.892c2.277 11.426 12.38 20.065 24.466 20.065s22.189-8.639 24.466-20.065h6.892c12.221 0 22.163 9.942 22.163 22.162 0 12.221-9.942 22.163-22.163 22.163h-62.716c-12.221-.001-22.163-9.942-22.163-22.163zm44.855-22.162h17.332c-1.709 3.021-4.954 5.065-8.666 5.065s-6.957-2.044-8.666-5.065zm40.024 59.324c20.492 0 37.163-16.671 37.163-37.163 0-20.491-16.671-37.162-37.163-37.162h-55.218v-22.17c0-19.625 15.965-35.59 35.59-35.59h34.61c6.586 0 12.882 1.77 18.415 5.134v51.836c0 11.924 7.038 22.231 17.175 26.998v23.584c-3.339 6.584-22.261 38.46-76.251 41.196v-16.663zm33.18 113.395v-31.508c0-4.142-3.358-7.5-7.5-7.5s-7.5 3.358-7.5 7.5v31.508h-8.943v-31.508c0-4.142-3.358-7.5-7.5-7.5-15.118 0-27.417-12.299-27.417-27.417v-15.283c52.613-2.361 76.924-29.295 86.088-43.348 5.38 4.629 13.53 12.775 21.616 25.194 12.136 18.641 26.492 50.831 27.835 99.862z"/></svg>