<svg id="regular" enable-background="new 0 0 24 24" height="512" viewBox="0 0 24 24" width="512" xmlns="http://www.w3.org/2000/svg"><path d="m11.009 14.75c-.165 0-.328-.061-.454-.177l-2.709-2.501h-5.534c-.861 0-1.562-.701-1.562-1.562v-8.198c0-.861.701-1.562 1.562-1.562h10.375c.861 0 1.563.701 1.563 1.562v8.196c0 .861-.701 1.562-1.563 1.562h-1.009v2.009c0 .266-.158.507-.401.613-.086.04-.177.058-.268.058z" fill="#ffc107"/><circle cx="18.5" cy="14.5" fill="#2196f3" r="2.25"/><circle cx="4" cy="17" fill="#4caf50" r="1.25"/><path d="m21.25 19.75h-5.5c-1.105 0-2 .895-2 2v2.25h9.5v-2.25c0-1.105-.895-2-2-2z" fill="#2196f3"/><path d="m5.25 20.75h-2.5c-1.105 0-2 .895-2 2v1.25h6.5v-1.25c0-1.105-.895-2-2-2z" fill="#4caf50"/><path d="m18.5 17.5c-1.654 0-3-1.346-3-3s1.346-3 3-3 3 1.346 3 3-1.346 3-3 3zm0-4.5c-.827 0-1.5.673-1.5 1.5s.673 1.5 1.5 1.5 1.5-.673 1.5-1.5-.673-1.5-1.5-1.5z"/><path d="m23.25 24c-.414 0-.75-.336-.75-.75v-1.5c0-.689-.561-1.25-1.25-1.25h-5.5c-.689 0-1.25.561-1.25 1.25v1.5c0 .414-.336.75-.75.75s-.75-.336-.75-.75v-1.5c0-1.517 1.233-2.75 2.75-2.75h5.5c1.517 0 2.75 1.233 2.75 2.75v1.5c0 .414-.336.75-.75.75z"/><path d="m11.25 16c-.185 0-.367-.068-.509-.199l-3.034-2.801h-4.957c-1.517 0-2.75-1.233-2.75-2.75v-7.5c0-1.517 1.233-2.75 2.75-2.75h9.5c1.517 0 2.75 1.233 2.75 2.75v7.5c0 1.517-1.233 2.75-2.75 2.75h-.25v2.25c0 .298-.177.567-.449.688-.097.041-.199.062-.301.062zm-8.5-14.5c-.689 0-1.25.561-1.25 1.25v7.5c0 .689.561 1.25 1.25 1.25h5.25c.188 0 .37.071.509.199l1.991 1.838v-1.287c0-.414.336-.75.75-.75h1c.689 0 1.25-.561 1.25-1.25v-7.5c0-.689-.561-1.25-1.25-1.25z"/><path d="m7.5 8.75c-.414 0-.75-.336-.75-.75v-.229c0-.94.488-1.838 1.34-2.463.261-.192.41-.486.41-.808 0-.552-.448-1-1-1s-1 .448-1 1c0 .414-.336.75-.75.75s-.75-.336-.75-.75c0-1.379 1.121-2.5 2.5-2.5s2.5 1.121 2.5 2.5c0 .794-.383 1.548-1.023 2.018-.272.198-.727.626-.727 1.253v.229c0 .414-.336.75-.75.75z"/><path d="m4 19c-1.103 0-2-.897-2-2s.897-2 2-2 2 .897 2 2-.897 2-2 2zm0-2.5c-.275 0-.5.225-.5.5s.225.5.5.5.5-.225.5-.5-.225-.5-.5-.5z"/><path d="m7.25 24c-.414 0-.75-.336-.75-.75v-.5c0-.689-.561-1.25-1.25-1.25h-2.5c-.689 0-1.25.561-1.25 1.25v.5c0 .414-.336.75-.75.75s-.75-.336-.75-.75v-.5c0-1.517 1.233-2.75 2.75-2.75h2.5c1.517 0 2.75 1.233 2.75 2.75v.5c0 .414-.336.75-.75.75z"/><circle cx="7.5" cy="10.25" r=".75"/></svg>